<mxfile host="Electron" agent="Mozilla/5.0 (Macintosh; Intel Mac OS X 10_15_7) AppleWebKit/537.36 (KHTML, like Gecko) draw.io/28.0.6 Chrome/138.0.7204.100 Electron/37.2.3 Safari/537.36" version="28.0.6">
  <diagram name="Pre" id="CsYT0jjc2dDIddzaS4Tb">
    <mxGraphModel dx="1732" dy="1043" grid="1" gridSize="10" guides="1" tooltips="1" connect="1" arrows="1" fold="1" page="1" pageScale="1" pageWidth="1169" pageHeight="827" math="0" shadow="0">
      <root>
        <mxCell id="SWCKuI3yV05O1hUtp25W-0" />
        <mxCell id="SWCKuI3yV05O1hUtp25W-1" parent="SWCKuI3yV05O1hUtp25W-0" />
        <mxCell id="SWCKuI3yV05O1hUtp25W-3" value="Customer Private Network (Self-hosted / Hyperscaler)" style="rounded=1;whiteSpace=wrap;html=1;strokeColor=#475E75;fillColor=#F5F6F7;arcSize=24;absoluteArcSize=1;imageWidth=64;imageHeight=64;strokeWidth=1.5;fontSize=16;fontStyle=1;verticalAlign=bottom;align=left;spacingLeft=40;spacingBottom=5;" parent="SWCKuI3yV05O1hUtp25W-1" vertex="1">
          <mxGeometry x="40" y="50" width="630" height="750" as="geometry" />
        </mxCell>
        <mxCell id="SWCKuI3yV05O1hUtp25W-26" value="" style="group" parent="SWCKuI3yV05O1hUtp25W-1" vertex="1" connectable="0">
          <mxGeometry x="303" y="530" width="110" height="98" as="geometry" />
        </mxCell>
        <mxCell id="SWCKuI3yV05O1hUtp25W-27" value="" style="rounded=1;whiteSpace=wrap;html=1;strokeColor=#0070F2;fillColor=#EBF8FF;arcSize=24;absoluteArcSize=1;imageWidth=64;imageHeight=64;strokeWidth=1.5;" parent="SWCKuI3yV05O1hUtp25W-26" vertex="1">
          <mxGeometry x="5.142857142857143" y="4.666666666666667" width="102.85714285714286" height="93.33333333333334" as="geometry" />
        </mxCell>
        <mxCell id="SWCKuI3yV05O1hUtp25W-28" value="S/4HANA / ECC" style="rounded=1;whiteSpace=wrap;html=1;strokeColor=#0070F2;fillColor=#EBF8FF;arcSize=24;absoluteArcSize=1;imageWidth=64;imageHeight=64;strokeWidth=1.5;fontStyle=1" parent="SWCKuI3yV05O1hUtp25W-26" vertex="1">
          <mxGeometry width="102.85714285714286" height="93.33333333333334" as="geometry" />
        </mxCell>
        <mxCell id="SWCKuI3yV05O1hUtp25W-33" style="edgeStyle=orthogonalEdgeStyle;rounded=1;orthogonalLoop=1;jettySize=auto;html=1;endArrow=blockThin;endFill=1;strokeColor=#475E75;startArrow=blockThin;startFill=1;strokeWidth=2;entryX=0.5;entryY=1;entryDx=0;entryDy=0;exitX=0.5;exitY=0;exitDx=0;exitDy=0;" parent="SWCKuI3yV05O1hUtp25W-1" source="SWCKuI3yV05O1hUtp25W-28" target="iX30tmptxmyhowQ8DGH3-32" edge="1">
          <mxGeometry relative="1" as="geometry">
            <mxPoint x="310" y="200" as="sourcePoint" />
            <mxPoint x="355" y="231" as="targetPoint" />
          </mxGeometry>
        </mxCell>
        <mxCell id="SWCKuI3yV05O1hUtp25W-34" style="edgeStyle=orthogonalEdgeStyle;rounded=1;orthogonalLoop=1;jettySize=auto;html=1;exitX=0;exitY=0.5;exitDx=0;exitDy=0;entryX=0.75;entryY=1;entryDx=0;entryDy=0;endArrow=blockThin;endFill=1;strokeColor=#475E75;startArrow=blockThin;startFill=1;strokeWidth=2;" parent="SWCKuI3yV05O1hUtp25W-1" source="iX30tmptxmyhowQ8DGH3-31" target="iX30tmptxmyhowQ8DGH3-32" edge="1">
          <mxGeometry relative="1" as="geometry">
            <mxPoint x="117.3809523809523" y="365" as="sourcePoint" />
            <mxPoint x="275" y="181" as="targetPoint" />
          </mxGeometry>
        </mxCell>
        <mxCell id="SWCKuI3yV05O1hUtp25W-35" value="" style="group;fillColor=#ffffff;" parent="SWCKuI3yV05O1hUtp25W-1" vertex="1" connectable="0">
          <mxGeometry x="120" y="530" width="110" height="98" as="geometry" />
        </mxCell>
        <mxCell id="SWCKuI3yV05O1hUtp25W-36" value="" style="rounded=1;whiteSpace=wrap;html=1;strokeColor=#0070F2;fillColor=#FFFFFF;arcSize=24;absoluteArcSize=1;imageWidth=64;imageHeight=64;strokeWidth=1.5;" parent="SWCKuI3yV05O1hUtp25W-35" vertex="1">
          <mxGeometry x="5.238095238095238" y="4.666666666666667" width="104.76190476190476" height="93.33333333333334" as="geometry" />
        </mxCell>
        <mxCell id="SWCKuI3yV05O1hUtp25W-37" value="SAP on-premise products" style="rounded=1;whiteSpace=wrap;html=1;strokeColor=#0070F2;fillColor=#ffffff;arcSize=24;absoluteArcSize=1;imageWidth=64;imageHeight=64;strokeWidth=1.5;fontStyle=1" parent="SWCKuI3yV05O1hUtp25W-35" vertex="1">
          <mxGeometry width="104.76190476190476" height="93.33333333333334" as="geometry" />
        </mxCell>
        <mxCell id="SWCKuI3yV05O1hUtp25W-38" style="edgeStyle=orthogonalEdgeStyle;rounded=1;orthogonalLoop=1;jettySize=auto;html=1;exitX=0;exitY=0.75;exitDx=0;exitDy=0;entryX=0.5;entryY=0;entryDx=0;entryDy=0;endArrow=blockThin;endFill=1;strokeColor=#475E75;startArrow=blockThin;startFill=1;strokeWidth=2;" parent="SWCKuI3yV05O1hUtp25W-1" source="iX30tmptxmyhowQ8DGH3-32" target="SWCKuI3yV05O1hUtp25W-37" edge="1">
          <mxGeometry relative="1" as="geometry">
            <mxPoint x="275" y="206" as="sourcePoint" />
            <mxPoint x="420" y="700" as="targetPoint" />
          </mxGeometry>
        </mxCell>
        <mxCell id="SWCKuI3yV05O1hUtp25W-39" value="" style="group;fontStyle=1" parent="SWCKuI3yV05O1hUtp25W-1" vertex="1" connectable="0">
          <mxGeometry x="840" y="100" width="300" height="700" as="geometry" />
        </mxCell>
        <mxCell id="iX30tmptxmyhowQ8DGH3-0" value="" style="rounded=1;whiteSpace=wrap;html=1;strokeColor=#5d36ff;fillColor=#FFFFFF;arcSize=24;absoluteArcSize=1;imageWidth=64;imageHeight=64;strokeWidth=1.5;" parent="SWCKuI3yV05O1hUtp25W-39" vertex="1">
          <mxGeometry x="-40" y="-50" width="340" height="750" as="geometry" />
        </mxCell>
        <mxCell id="SWCKuI3yV05O1hUtp25W-40" value="" style="rounded=1;whiteSpace=wrap;html=1;strokeColor=#0070F2;fillColor=#EBF8FF;arcSize=24;absoluteArcSize=1;imageWidth=64;imageHeight=64;strokeWidth=1.5;" parent="SWCKuI3yV05O1hUtp25W-39" vertex="1">
          <mxGeometry x="5.95" y="-10" width="244.05" height="200" as="geometry" />
        </mxCell>
        <mxCell id="SWCKuI3yV05O1hUtp25W-41" value="SAP Cloud Solutions" style="rounded=1;whiteSpace=wrap;html=1;strokeColor=#0070F2;fillColor=#EBF8FF;arcSize=24;absoluteArcSize=1;imageWidth=64;imageHeight=64;strokeWidth=1.5;verticalAlign=top;align=left;spacingLeft=5;fontStyle=1" parent="SWCKuI3yV05O1hUtp25W-39" vertex="1">
          <mxGeometry y="-21" width="238.0952380952381" height="200" as="geometry" />
        </mxCell>
        <mxCell id="SWCKuI3yV05O1hUtp25W-42" value="SAP Ariba" style="text;html=1;align=left;verticalAlign=middle;resizable=0;points=[];autosize=1;strokeColor=none;fillColor=none;fontSize=16;fontColor=#1D2D3E;fontFamily=Helvetica;fontStyle=1" parent="SWCKuI3yV05O1hUtp25W-39" vertex="1">
          <mxGeometry x="5.949999999999998" y="30" width="100" height="30" as="geometry" />
        </mxCell>
        <mxCell id="SWCKuI3yV05O1hUtp25W-43" value="SAP Concur" style="text;html=1;align=left;verticalAlign=middle;resizable=0;points=[];autosize=1;strokeColor=none;fillColor=none;fontSize=16;fontColor=#1D2D3E;fontFamily=Helvetica;fontStyle=1" parent="SWCKuI3yV05O1hUtp25W-39" vertex="1">
          <mxGeometry x="114.05" y="120" width="110" height="30" as="geometry" />
        </mxCell>
        <mxCell id="SWCKuI3yV05O1hUtp25W-44" value="SAP SuccessFactors" style="text;html=1;align=left;verticalAlign=middle;resizable=0;points=[];autosize=1;strokeColor=none;fillColor=none;fontSize=16;fontColor=#1D2D3E;fontFamily=Helvetica;fontStyle=1" parent="SWCKuI3yV05O1hUtp25W-39" vertex="1">
          <mxGeometry x="34.05" y="75" width="170" height="30" as="geometry" />
        </mxCell>
        <mxCell id="SWCKuI3yV05O1hUtp25W-45" value="" style="group;verticalAlign=top;" parent="SWCKuI3yV05O1hUtp25W-39" vertex="1" connectable="0">
          <mxGeometry y="550" width="250" height="126" as="geometry" />
        </mxCell>
        <mxCell id="SWCKuI3yV05O1hUtp25W-46" value="" style="rounded=1;whiteSpace=wrap;html=1;strokeColor=#5D36FF;fillColor=#FFFFFF;arcSize=24;absoluteArcSize=1;imageWidth=64;imageHeight=64;strokeWidth=1.5;" parent="SWCKuI3yV05O1hUtp25W-45" vertex="1">
          <mxGeometry x="11.904761904761905" y="6" width="238.0952380952381" height="120" as="geometry" />
        </mxCell>
        <mxCell id="SWCKuI3yV05O1hUtp25W-47" value="&lt;span style=&quot;&quot;&gt;Logging and Reporting Solutions&lt;/span&gt;" style="rounded=1;whiteSpace=wrap;html=1;strokeColor=#5D36FF;fillColor=#FFFFFF;arcSize=24;absoluteArcSize=1;imageWidth=64;imageHeight=64;strokeWidth=1.5;verticalAlign=top;align=left;spacingLeft=5;fontStyle=1" parent="SWCKuI3yV05O1hUtp25W-45" vertex="1">
          <mxGeometry width="238.0952380952381" height="120" as="geometry" />
        </mxCell>
        <mxCell id="SWCKuI3yV05O1hUtp25W-48" value="&lt;font face=&quot;arial&quot;&gt;&lt;span style=&quot;font-size: 16px;&quot;&gt;&lt;b&gt;Azure Data Lake&lt;/b&gt;&lt;/span&gt;&lt;/font&gt;" style="text;html=1;align=left;verticalAlign=middle;resizable=0;points=[];autosize=1;strokeColor=none;fillColor=none;fontSize=12;fontColor=#1d2d3e;fontFamily=Helvetica;" parent="SWCKuI3yV05O1hUtp25W-45" vertex="1">
          <mxGeometry x="11.899999999999977" y="25.646017699115042" width="150" height="30" as="geometry" />
        </mxCell>
        <mxCell id="iX30tmptxmyhowQ8DGH3-25" value="&lt;font face=&quot;arial&quot;&gt;&lt;span style=&quot;font-size: 16px;&quot;&gt;&lt;b&gt;Splunk&lt;/b&gt;&lt;/span&gt;&lt;/font&gt;" style="text;html=1;align=left;verticalAlign=middle;resizable=0;points=[];autosize=1;strokeColor=none;fillColor=none;fontSize=12;fontColor=#1d2d3e;fontFamily=Helvetica;" parent="SWCKuI3yV05O1hUtp25W-45" vertex="1">
          <mxGeometry x="11.900000000000091" y="55.64999999999998" width="80" height="30" as="geometry" />
        </mxCell>
        <mxCell id="bcSuziNdv9UFS-3joONi-3" value="..." style="text;html=1;align=left;verticalAlign=middle;resizable=0;points=[];autosize=1;strokeColor=none;fillColor=none;fontSize=16;fontColor=#1D2D3E;fontFamily=Helvetica;fontStyle=1" parent="SWCKuI3yV05O1hUtp25W-45" vertex="1">
          <mxGeometry x="11.899999999999977" y="80" width="40" height="30" as="geometry" />
        </mxCell>
        <mxCell id="iX30tmptxmyhowQ8DGH3-13" value="" style="group;verticalAlign=top;" parent="SWCKuI3yV05O1hUtp25W-39" vertex="1" connectable="0">
          <mxGeometry y="230" width="250" height="126" as="geometry" />
        </mxCell>
        <mxCell id="iX30tmptxmyhowQ8DGH3-14" value="" style="rounded=1;whiteSpace=wrap;html=1;strokeColor=#5D36FF;fillColor=#FFFFFF;arcSize=24;absoluteArcSize=1;imageWidth=64;imageHeight=64;strokeWidth=1.5;" parent="iX30tmptxmyhowQ8DGH3-13" vertex="1">
          <mxGeometry x="11.904761904761905" y="6" width="238.0952380952381" height="120" as="geometry" />
        </mxCell>
        <mxCell id="iX30tmptxmyhowQ8DGH3-15" value="&lt;span style=&quot;&quot;&gt;Non-SAP /&amp;nbsp;&lt;/span&gt;B2B&amp;nbsp;&lt;span style=&quot;&quot;&gt;Cloud Solutions&amp;nbsp;&lt;/span&gt;" style="rounded=1;whiteSpace=wrap;html=1;strokeColor=#5D36FF;fillColor=#FFFFFF;arcSize=24;absoluteArcSize=1;imageWidth=64;imageHeight=64;strokeWidth=1.5;verticalAlign=top;align=left;spacingLeft=5;fontStyle=1" parent="iX30tmptxmyhowQ8DGH3-13" vertex="1">
          <mxGeometry width="238.0952380952381" height="120" as="geometry" />
        </mxCell>
        <mxCell id="iX30tmptxmyhowQ8DGH3-16" value="&lt;font face=&quot;arial&quot;&gt;&lt;span style=&quot;font-size: 16px;&quot;&gt;&lt;b&gt;ServiceNow&lt;/b&gt;&lt;/span&gt;&lt;/font&gt;" style="text;html=1;align=left;verticalAlign=middle;resizable=0;points=[];autosize=1;strokeColor=none;fillColor=none;fontSize=12;fontColor=#1d2d3e;fontFamily=Helvetica;" parent="iX30tmptxmyhowQ8DGH3-13" vertex="1">
          <mxGeometry x="11.899999999999977" y="25.646017699115042" width="110" height="30" as="geometry" />
        </mxCell>
        <mxCell id="iX30tmptxmyhowQ8DGH3-24" value="&lt;font face=&quot;arial&quot;&gt;&lt;span style=&quot;font-size: 16px;&quot;&gt;&lt;b&gt;Treasury Management&lt;/b&gt;&lt;/span&gt;&lt;/font&gt;" style="text;html=1;align=left;verticalAlign=middle;resizable=0;points=[];autosize=1;strokeColor=none;fillColor=none;fontSize=12;fontColor=#1d2d3e;fontFamily=Helvetica;" parent="iX30tmptxmyhowQ8DGH3-13" vertex="1">
          <mxGeometry x="11.900000000000091" y="60" width="190" height="30" as="geometry" />
        </mxCell>
        <mxCell id="bcSuziNdv9UFS-3joONi-1" value="..." style="text;html=1;align=left;verticalAlign=middle;resizable=0;points=[];autosize=1;strokeColor=none;fillColor=none;fontSize=16;fontColor=#1D2D3E;fontFamily=Helvetica;fontStyle=1" parent="iX30tmptxmyhowQ8DGH3-13" vertex="1">
          <mxGeometry x="11.899999999999977" y="83" width="40" height="30" as="geometry" />
        </mxCell>
        <mxCell id="iX30tmptxmyhowQ8DGH3-17" value="" style="group;verticalAlign=top;" parent="SWCKuI3yV05O1hUtp25W-39" vertex="1" connectable="0">
          <mxGeometry x="-4.529709940470639e-14" y="390" width="250" height="126" as="geometry" />
        </mxCell>
        <mxCell id="iX30tmptxmyhowQ8DGH3-18" value="" style="rounded=1;whiteSpace=wrap;html=1;strokeColor=#5D36FF;fillColor=#FFFFFF;arcSize=24;absoluteArcSize=1;imageWidth=64;imageHeight=64;strokeWidth=1.5;" parent="iX30tmptxmyhowQ8DGH3-17" vertex="1">
          <mxGeometry x="11.904761904761905" y="6" width="238.0952380952381" height="120" as="geometry" />
        </mxCell>
        <mxCell id="iX30tmptxmyhowQ8DGH3-19" value="&lt;span style=&quot;&quot;&gt;Government Solutions&lt;/span&gt;" style="rounded=1;whiteSpace=wrap;html=1;strokeColor=#5D36FF;fillColor=#FFFFFF;arcSize=24;absoluteArcSize=1;imageWidth=64;imageHeight=64;strokeWidth=1.5;verticalAlign=top;align=left;spacingLeft=5;fontStyle=1" parent="iX30tmptxmyhowQ8DGH3-17" vertex="1">
          <mxGeometry width="238.0952380952381" height="120" as="geometry" />
        </mxCell>
        <mxCell id="iX30tmptxmyhowQ8DGH3-20" value="&lt;font face=&quot;arial&quot;&gt;&lt;span style=&quot;font-size: 16px;&quot;&gt;&lt;b&gt;eInvoicing&lt;/b&gt;&lt;/span&gt;&lt;/font&gt;" style="text;html=1;align=left;verticalAlign=middle;resizable=0;points=[];autosize=1;strokeColor=none;fillColor=none;fontSize=12;fontColor=#1d2d3e;fontFamily=Helvetica;" parent="iX30tmptxmyhowQ8DGH3-17" vertex="1">
          <mxGeometry x="11.899999999999977" y="44.99601769911504" width="100" height="30" as="geometry" />
        </mxCell>
        <mxCell id="bcSuziNdv9UFS-3joONi-2" value="..." style="text;html=1;align=left;verticalAlign=middle;resizable=0;points=[];autosize=1;strokeColor=none;fillColor=none;fontSize=16;fontColor=#1D2D3E;fontFamily=Helvetica;fontStyle=1" parent="iX30tmptxmyhowQ8DGH3-17" vertex="1">
          <mxGeometry x="11.899999999999977" y="70" width="40" height="30" as="geometry" />
        </mxCell>
        <mxCell id="bcSuziNdv9UFS-3joONi-0" value="..." style="text;html=1;align=left;verticalAlign=middle;resizable=0;points=[];autosize=1;strokeColor=none;fillColor=none;fontSize=16;fontColor=#1D2D3E;fontFamily=Helvetica;fontStyle=1" parent="SWCKuI3yV05O1hUtp25W-39" vertex="1">
          <mxGeometry x="20" y="130" width="40" height="30" as="geometry" />
        </mxCell>
        <mxCell id="SWCKuI3yV05O1hUtp25W-49" style="edgeStyle=orthogonalEdgeStyle;rounded=1;orthogonalLoop=1;jettySize=auto;html=1;exitX=0;exitY=0.25;exitDx=0;exitDy=0;entryX=0.5;entryY=0;entryDx=0;entryDy=0;endArrow=blockThin;endFill=1;strokeColor=#475E75;startArrow=blockThin;startFill=1;strokeWidth=2;" parent="SWCKuI3yV05O1hUtp25W-1" source="SWCKuI3yV05O1hUtp25W-41" target="iX30tmptxmyhowQ8DGH3-32" edge="1">
          <mxGeometry relative="1" as="geometry">
            <mxPoint x="650" y="380" as="sourcePoint" />
            <mxPoint x="435" y="181" as="targetPoint" />
            <Array as="points">
              <mxPoint x="355" y="129" />
            </Array>
          </mxGeometry>
        </mxCell>
        <mxCell id="SWCKuI3yV05O1hUtp25W-50" style="edgeStyle=orthogonalEdgeStyle;rounded=1;orthogonalLoop=1;jettySize=auto;html=1;entryX=0;entryY=0.25;entryDx=0;entryDy=0;endArrow=none;endFill=0;strokeColor=#475E75;startArrow=blockThin;startFill=1;strokeWidth=2;" parent="SWCKuI3yV05O1hUtp25W-1" target="iX30tmptxmyhowQ8DGH3-32" edge="1">
          <mxGeometry relative="1" as="geometry">
            <mxPoint x="840" y="740" as="sourcePoint" />
            <mxPoint x="435" y="206" as="targetPoint" />
            <Array as="points">
              <mxPoint x="80" y="740" />
              <mxPoint x="80" y="172" />
            </Array>
          </mxGeometry>
        </mxCell>
        <mxCell id="iX30tmptxmyhowQ8DGH3-1" value="Event-based Integration Solution" style="rounded=1;whiteSpace=wrap;html=1;strokeColor=#cc00dc;fillColor=#ffffff;arcSize=24;absoluteArcSize=1;imageWidth=64;imageHeight=64;strokeWidth=1.5;dashed=1;dashPattern=1 2;fontStyle=1;spacingTop=0;spacingLeft=5;spacingRight=5;" parent="SWCKuI3yV05O1hUtp25W-1" vertex="1">
          <mxGeometry x="500" y="628" width="140" height="80" as="geometry" />
        </mxCell>
        <mxCell id="iX30tmptxmyhowQ8DGH3-2" value="API Management Solution" style="rounded=1;whiteSpace=wrap;html=1;strokeColor=#cc00dc;fillColor=#ffffff;arcSize=24;absoluteArcSize=1;imageWidth=64;imageHeight=64;strokeWidth=1.5;dashed=1;dashPattern=1 2;fontStyle=1" parent="SWCKuI3yV05O1hUtp25W-1" vertex="1">
          <mxGeometry x="500" y="414" width="140" height="80" as="geometry" />
        </mxCell>
        <mxCell id="iX30tmptxmyhowQ8DGH3-4" style="edgeStyle=orthogonalEdgeStyle;rounded=1;orthogonalLoop=1;jettySize=auto;html=1;entryX=0.5;entryY=0;entryDx=0;entryDy=0;endArrow=blockThin;endFill=1;strokeColor=#475E75;startArrow=blockThin;startFill=1;strokeWidth=2;exitX=0.5;exitY=1;exitDx=0;exitDy=0;" parent="SWCKuI3yV05O1hUtp25W-1" source="iX30tmptxmyhowQ8DGH3-30" target="iX30tmptxmyhowQ8DGH3-2" edge="1">
          <mxGeometry relative="1" as="geometry">
            <mxPoint x="122.61904761904748" y="463" as="sourcePoint" />
            <mxPoint x="350" y="420" as="targetPoint" />
          </mxGeometry>
        </mxCell>
        <mxCell id="iX30tmptxmyhowQ8DGH3-5" style="edgeStyle=orthogonalEdgeStyle;rounded=1;orthogonalLoop=1;jettySize=auto;html=1;entryX=0.5;entryY=1;entryDx=0;entryDy=0;endArrow=blockThin;endFill=1;strokeColor=#475E75;startArrow=blockThin;startFill=1;strokeWidth=2;exitX=1;exitY=0.5;exitDx=0;exitDy=0;" parent="SWCKuI3yV05O1hUtp25W-1" source="SWCKuI3yV05O1hUtp25W-27" target="iX30tmptxmyhowQ8DGH3-2" edge="1">
          <mxGeometry relative="1" as="geometry">
            <mxPoint x="480" y="560" as="sourcePoint" />
            <mxPoint x="567" y="574" as="targetPoint" />
          </mxGeometry>
        </mxCell>
        <mxCell id="iX30tmptxmyhowQ8DGH3-6" style="edgeStyle=orthogonalEdgeStyle;rounded=1;orthogonalLoop=1;jettySize=auto;html=1;entryX=0;entryY=0.5;entryDx=0;entryDy=0;endArrow=blockThin;endFill=1;strokeColor=#475E75;startArrow=blockThin;startFill=1;strokeWidth=2;exitX=0.5;exitY=1;exitDx=0;exitDy=0;" parent="SWCKuI3yV05O1hUtp25W-1" source="SWCKuI3yV05O1hUtp25W-27" target="iX30tmptxmyhowQ8DGH3-1" edge="1">
          <mxGeometry relative="1" as="geometry">
            <mxPoint x="520" y="440" as="sourcePoint" />
            <mxPoint x="607" y="454" as="targetPoint" />
          </mxGeometry>
        </mxCell>
        <mxCell id="iX30tmptxmyhowQ8DGH3-7" style="edgeStyle=orthogonalEdgeStyle;rounded=1;orthogonalLoop=1;jettySize=auto;html=1;entryX=0;entryY=0.25;entryDx=0;entryDy=0;endArrow=blockThin;endFill=1;strokeColor=#475E75;startArrow=blockThin;startFill=1;strokeWidth=2;exitX=1;exitY=0.5;exitDx=0;exitDy=0;" parent="SWCKuI3yV05O1hUtp25W-1" source="iX30tmptxmyhowQ8DGH3-1" target="SWCKuI3yV05O1hUtp25W-47" edge="1">
          <mxGeometry relative="1" as="geometry">
            <mxPoint x="610" y="495" as="sourcePoint" />
            <mxPoint x="733" y="440" as="targetPoint" />
          </mxGeometry>
        </mxCell>
        <mxCell id="iX30tmptxmyhowQ8DGH3-10" value="IDOCs" style="rounded=1;whiteSpace=wrap;html=1;strokeColor=#475E75;strokeWidth=1.5;arcSize=16;fillColor=#ffffff;perimeterSpacing=0;absoluteArcSize=1;" parent="SWCKuI3yV05O1hUtp25W-1" vertex="1">
          <mxGeometry x="188" y="207" width="60" height="20" as="geometry" />
        </mxCell>
        <mxCell id="iX30tmptxmyhowQ8DGH3-11" value="Files / IDOCs" style="rounded=1;whiteSpace=wrap;html=1;strokeColor=#475E75;strokeWidth=1.5;arcSize=16;fillColor=#ffffff;perimeterSpacing=0;absoluteArcSize=1;" parent="SWCKuI3yV05O1hUtp25W-1" vertex="1">
          <mxGeometry x="402" y="299" width="80" height="20" as="geometry" />
        </mxCell>
        <mxCell id="iX30tmptxmyhowQ8DGH3-12" style="edgeStyle=orthogonalEdgeStyle;rounded=1;orthogonalLoop=1;jettySize=auto;html=1;entryX=0;entryY=0.5;entryDx=0;entryDy=0;endArrow=blockThin;endFill=1;strokeColor=#475E75;startArrow=blockThin;startFill=1;strokeWidth=2;exitX=1;exitY=0.25;exitDx=0;exitDy=0;" parent="SWCKuI3yV05O1hUtp25W-1" source="iX30tmptxmyhowQ8DGH3-2" target="iX30tmptxmyhowQ8DGH3-15" edge="1">
          <mxGeometry relative="1" as="geometry">
            <mxPoint x="710" y="300" as="sourcePoint" />
            <mxPoint x="910" y="430" as="targetPoint" />
            <Array as="points">
              <mxPoint x="760" y="434" />
              <mxPoint x="760" y="390" />
            </Array>
          </mxGeometry>
        </mxCell>
        <mxCell id="iX30tmptxmyhowQ8DGH3-21" value="AMQP" style="rounded=1;whiteSpace=wrap;html=1;strokeColor=#475E75;strokeWidth=1.5;arcSize=16;fillColor=#ffffff;perimeterSpacing=0;absoluteArcSize=1;" parent="SWCKuI3yV05O1hUtp25W-1" vertex="1">
          <mxGeometry x="680" y="663" width="60" height="20" as="geometry" />
        </mxCell>
        <mxCell id="iX30tmptxmyhowQ8DGH3-22" value="HTTP" style="rounded=1;whiteSpace=wrap;html=1;strokeColor=#475E75;strokeWidth=1.5;arcSize=16;fillColor=#ffffff;perimeterSpacing=0;absoluteArcSize=1;" parent="SWCKuI3yV05O1hUtp25W-1" vertex="1">
          <mxGeometry x="680" y="427" width="60" height="20" as="geometry" />
        </mxCell>
        <mxCell id="iX30tmptxmyhowQ8DGH3-23" value="Files" style="rounded=1;whiteSpace=wrap;html=1;strokeColor=#475E75;strokeWidth=1.5;arcSize=16;fillColor=#ffffff;perimeterSpacing=0;absoluteArcSize=1;" parent="SWCKuI3yV05O1hUtp25W-1" vertex="1">
          <mxGeometry x="680" y="730" width="60" height="20" as="geometry" />
        </mxCell>
        <mxCell id="iX30tmptxmyhowQ8DGH3-26" style="edgeStyle=orthogonalEdgeStyle;rounded=1;orthogonalLoop=1;jettySize=auto;html=1;entryX=0;entryY=0.5;entryDx=0;entryDy=0;endArrow=blockThin;endFill=1;strokeColor=#475E75;startArrow=blockThin;startFill=1;strokeWidth=2;exitX=1;exitY=0.75;exitDx=0;exitDy=0;" parent="SWCKuI3yV05O1hUtp25W-1" source="iX30tmptxmyhowQ8DGH3-2" target="iX30tmptxmyhowQ8DGH3-19" edge="1">
          <mxGeometry relative="1" as="geometry">
            <mxPoint x="760" y="715" as="sourcePoint" />
            <mxPoint x="954" y="610" as="targetPoint" />
            <Array as="points">
              <mxPoint x="760" y="474" />
              <mxPoint x="760" y="550" />
            </Array>
          </mxGeometry>
        </mxCell>
        <mxCell id="iX30tmptxmyhowQ8DGH3-28" value="HTTP" style="rounded=1;whiteSpace=wrap;html=1;strokeColor=#475E75;strokeWidth=1.5;arcSize=16;fillColor=#ffffff;perimeterSpacing=0;absoluteArcSize=1;" parent="SWCKuI3yV05O1hUtp25W-1" vertex="1">
          <mxGeometry x="680" y="464" width="60" height="20" as="geometry" />
        </mxCell>
        <mxCell id="iX30tmptxmyhowQ8DGH3-29" value="" style="group" parent="SWCKuI3yV05O1hUtp25W-1" vertex="1" connectable="0">
          <mxGeometry x="500" y="270" width="135" height="80" as="geometry" />
        </mxCell>
        <mxCell id="iX30tmptxmyhowQ8DGH3-30" value="" style="rounded=1;whiteSpace=wrap;html=1;strokeColor=#cc00dc;fillColor=#FFFFFF;arcSize=24;absoluteArcSize=1;imageWidth=64;imageHeight=64;strokeWidth=1.5;" parent="iX30tmptxmyhowQ8DGH3-29" vertex="1">
          <mxGeometry x="6.428571428571427" y="3.8095238095238098" width="128.57142857142858" height="76.19047619047619" as="geometry" />
        </mxCell>
        <mxCell id="iX30tmptxmyhowQ8DGH3-31" value="Bespoke Non-SAP solutions" style="rounded=1;whiteSpace=wrap;html=1;strokeColor=#cc00dc;fillColor=#ffffff;arcSize=24;absoluteArcSize=1;imageWidth=64;imageHeight=64;strokeWidth=1.5;fontStyle=1" parent="iX30tmptxmyhowQ8DGH3-29" vertex="1">
          <mxGeometry width="128.57142857142858" height="76.19047619047619" as="geometry" />
        </mxCell>
        <mxCell id="iX30tmptxmyhowQ8DGH3-32" value="" style="rounded=1;whiteSpace=wrap;html=1;strokeColor=#0070F2;fillColor=#EBF8FF;arcSize=24;absoluteArcSize=1;imageWidth=64;imageHeight=64;strokeWidth=1.5;" parent="SWCKuI3yV05O1hUtp25W-1" vertex="1">
          <mxGeometry x="275" y="149.5" width="160" height="91" as="geometry" />
        </mxCell>
        <mxCell id="eakkXzibblwH7DojkIe1-1" value="SAP PI/PO" style="text;html=1;align=left;verticalAlign=middle;resizable=0;points=[];autosize=1;strokeColor=none;fillColor=none;fontSize=16;fontColor=#1D2D3E;fontFamily=Helvetica;fontStyle=1" parent="SWCKuI3yV05O1hUtp25W-1" vertex="1">
          <mxGeometry x="308" y="162" width="100" height="30" as="geometry" />
        </mxCell>
        <mxCell id="iX30tmptxmyhowQ8DGH3-33" style="edgeStyle=orthogonalEdgeStyle;rounded=1;orthogonalLoop=1;jettySize=auto;html=1;exitX=0;exitY=0.25;exitDx=0;exitDy=0;entryX=1;entryY=0.5;entryDx=0;entryDy=0;endArrow=none;endFill=0;strokeColor=#475E75;startArrow=blockThin;startFill=1;strokeWidth=2;" parent="SWCKuI3yV05O1hUtp25W-1" source="iX30tmptxmyhowQ8DGH3-15" target="iX30tmptxmyhowQ8DGH3-32" edge="1">
          <mxGeometry relative="1" as="geometry">
            <mxPoint x="999" y="378" as="sourcePoint" />
            <mxPoint x="600" y="190" as="targetPoint" />
            <Array as="points">
              <mxPoint x="760" y="360" />
              <mxPoint x="760" y="195" />
            </Array>
          </mxGeometry>
        </mxCell>
        <mxCell id="iX30tmptxmyhowQ8DGH3-35" value="Files / SOAP&amp;nbsp;" style="rounded=1;whiteSpace=wrap;html=1;strokeColor=#475E75;strokeWidth=1.5;arcSize=16;fillColor=#ffffff;perimeterSpacing=0;absoluteArcSize=1;" parent="SWCKuI3yV05O1hUtp25W-1" vertex="1">
          <mxGeometry x="676" y="184" width="80" height="20" as="geometry" />
        </mxCell>
        <mxCell id="iX30tmptxmyhowQ8DGH3-36" value="SOAP / HTTP" style="rounded=1;whiteSpace=wrap;html=1;strokeColor=#475E75;strokeWidth=1.5;arcSize=16;fillColor=#ffffff;perimeterSpacing=0;absoluteArcSize=1;" parent="SWCKuI3yV05O1hUtp25W-1" vertex="1">
          <mxGeometry x="676" y="119" width="80" height="20" as="geometry" />
        </mxCell>
        <mxCell id="83r2QO2GGbaT9ctiXixm-0" value="" style="shape=image;editableCssRules=.*;verticalLabelPosition=bottom;labelBackgroundColor=default;verticalAlign=top;aspect=fixed;imageAspect=0;image=data:image/svg+xml,PHN2ZyB4bWxucz0iaHR0cDovL3d3dy53My5vcmcvMjAwMC9zdmciIHZpZXdCb3g9Ii0wLjUgLTAuNSAyOCAxOC40MTIiIGhlaWdodD0iMTguNDEyIiB3aWR0aD0iMjgiPiYjeGE7CSAgPHN0eWxlIHR5cGU9InRleHQvY3NzIj4uc3QwIHsgc3RvcC1jb2xvcjogcmdiKDM1LCAxNDksIDI1NSk7IH0gLnN0MSB7IHN0b3AtY29sb3I6IHJnYigwLCA4NywgMjEwKTsgfSA8L3N0eWxlPiYjeGE7CTxkZWZzPiYjeGE7CQk8bGluZWFyR3JhZGllbnQgZ3JhZGllbnRVbml0cz0idXNlclNwYWNlT25Vc2UiIHkyPSIyMi4wMDgiIHgyPSIxNC44NjkiIHkxPSIyLjExMyIgeDE9IjIuMDM5IiBpZD0iQSI+JiN4YTsJCQk8c3RvcCBjbGFzcz0ic3QwIi8+JiN4YTsJCQk8c3RvcCBjbGFzcz0ic3QxIiBvZmZzZXQ9IjEiLz4mI3hhOwkJPC9saW5lYXJHcmFkaWVudD4mI3hhOwk8L2RlZnM+JiN4YTsJPHBhdGggZmlsbD0idXJsKCNBKSIgZD0iTTUuOTAzIDYuMDQ3QzYuNDM0IDIuMzQ1IDkuNjE5LS41IDEzLjQ2Ny0uNWMyLjgwMSAwIDUuMjQ3IDEuNTA2IDYuNTc3IDMuNzQ5aC4xMjRjNC4wNDkgMCA3LjMzMSAzLjI4MiA3LjMzMSA3LjMzMXMtMy4yODIgNy4zMzEtNy4zMzEgNy4zMzFoLTQuMDU0Yy0uMDg3IDAtLjE3My0uMDAyLS4yNTktLjAwNS0uMDc4LjAwMy0uMTU1LjAwNS0uMjMzLjAwNUg1LjQzMmMtMy4yNzYgMC01LjkzMi0yLjY1Ni01LjkzMi01LjkzMnMyLjY1Ni01LjkzMiA1LjkzMi01LjkzMnpNMTMuNDY3IDIuM2MtMi42NzQgMC00Ljg0MiAyLjE2OC00Ljg0MiA0Ljg0MmE0Ljk0IDQuOTQgMCAwIDAgLjAwNi4yMzggMS40IDEuNCAwIDAgMS0xLjM5OCAxLjQ2N2gtMS44Yy0xLjczIDAtMy4xMzIgMS40MDItMy4xMzIgMy4xMzJzMS40MDIgMy4xMzIgMy4xMzIgMy4xMzJoMTAuMTlhMy4xNCAzLjE0IDAgMCAwIC4xNi0uMDA0IDEuMzkgMS4zOSAwIDAgMSAuMTMxIDBjLjA2Ny4wMDMuMTM0LjAwNC4yMDIuMDA0aDQuMDU0YTQuNTMgNC41MyAwIDEgMCAwLTkuMDYyaC0uOTc3YTEuNCAxLjQgMCAwIDEtMS4yODMtLjg0QzE3LjE2MSAzLjQ5NCAxNS40NTIgMi4zIDEzLjQ2NyAyLjN6IiBmaWxsLXJ1bGU9ImV2ZW5vZGQiLz4mI3hhOzwvc3ZnPg==;" parent="SWCKuI3yV05O1hUtp25W-1" vertex="1">
          <mxGeometry x="810" y="775" width="28" height="18" as="geometry" />
        </mxCell>
        <mxCell id="83r2QO2GGbaT9ctiXixm-1" value="" style="shape=image;editableCssRules=.*;verticalLabelPosition=bottom;labelBackgroundColor=default;verticalAlign=top;aspect=fixed;imageAspect=0;image=data:image/svg+xml,PHN2ZyB4bWxucz0iaHR0cDovL3d3dy53My5vcmcvMjAwMC9zdmciIHZpZXdCb3g9Ii0wLjUgLTAuNSAyOCAyOCIgaGVpZ2h0PSIyOCIgd2lkdGg9IjI4Ij4mI3hhOwkgIDxzdHlsZSB0eXBlPSJ0ZXh0L2NzcyI+LnN0MCB7IHN0b3AtY29sb3I6IHJnYigzNSwgMTQ5LCAyNTUpOyB9IC5zdDEgeyBzdG9wLWNvbG9yOiByZ2IoMCwgODcsIDIxMCk7IH0gPC9zdHlsZT4mI3hhOwk8ZGVmcz4mI3hhOwkJPGxpbmVhckdyYWRpZW50IGdyYWRpZW50VW5pdHM9InVzZXJTcGFjZU9uVXNlIiB5Mj0iMjUuMzA5IiB4Mj0iMjMuNDU0IiB5MT0iMy40NzQiIHgxPSIyLjAzOSIgaWQ9IkEiPiYjeGE7CQkJPHN0b3AgY2xhc3M9InN0MCIvPiYjeGE7CQkJPHN0b3AgY2xhc3M9InN0MSIgb2Zmc2V0PSIxIi8+JiN4YTsJCTwvbGluZWFyR3JhZGllbnQ+JiN4YTsJPC9kZWZzPiYjeGE7CTxwYXRoIGZpbGw9InVybCgjQSkiIGQ9Ik0yNi45OTYgMTIuNDIybC02LjY1LTUuNTE2YTEuNCAxLjQgMCAwIDAtMS40ODQtLjE5NmMtLjQ5LjIyNC0uNzk4LjcyOC0uNzk4IDEuMjc0djIuNTM0TDEzLjcxIDYuOTA2YTEuNCAxLjQgMCAwIDAtMS40ODQtLjE5NmMtLjQ5LjIyNC0uNzk4LjcyOC0uNzk4IDEuMjc0VjEyLjFIOC41ODZWLjljMC0uNzctLjYzLTEuNC0xLjQtMS40SC45Qy4xMy0uNS0uNS4xMy0uNS45djI1LjJjMCAuNzcuNjMgMS40IDEuNCAxLjRoMjUuMmMuNzcgMCAxLjQtLjYzIDEuNC0xLjRWMTMuNWExLjM5IDEuMzkgMCAwIDAtLjUwNC0xLjA3OHpNNS43NTggMjQuN0gyLjN2LTMuNWgzLjQ1OHptMC02LjNIMi4zdi0zLjVoMy40NTh6bTAtNi4zSDIuM1Y4LjgyNGgzLjQ1OHptMC02LjA3NkgyLjNWMi4zaDMuNDU4ek0yNC42ODYgMjQuN0g4LjU1OHYtMy41aDEuODQ4Yy43NyAwIDEuNC0uNjMgMS40LTEuNHMtLjYzLTEuNC0xLjQtMS40SDguNTU4di0zLjVIMTIuOGMuNzcgMCAxLjQtLjYzIDEuNC0xLjR2LTIuNTM0bDQuMzU0IDMuNjEyYTEuNCAxLjQgMCAwIDAgMS40ODQuMTk2Yy40OS0uMjI0Ljc5OC0uNzI4Ljc5OC0xLjI3NHYtMi41MzRsMy44NSAzLjE5MnptLTkuMzY2LTMuMTVhMS43NSAxLjc1IDAgMSAwIDAtMy41IDEuNzUgMS43NSAwIDEgMCAwIDMuNXptNi45My0xLjc1YTEuNzUgMS43NSAwIDEgMS0zLjUgMCAxLjc1IDEuNzUgMCAxIDEgMy41IDB6IiBmaWxsLXJ1bGU9ImV2ZW5vZGQiLz4mI3hhOzwvc3ZnPg==;" parent="SWCKuI3yV05O1hUtp25W-1" vertex="1">
          <mxGeometry x="50" y="765" width="28" height="28" as="geometry" />
        </mxCell>
      </root>
    </mxGraphModel>
  </diagram>
</mxfile>
